<svg width="48" height="48" xmlns="http://www.w3.org/2000/svg">

 <metadata>Google Inc.</metadata>
 <g>
  <title>Layer 1</title>
  <path id="svg_1" fill="none" d="m0,0l64,0l0,64l-64,0l0,-64z"/>
  <path id="svg_2" fill="#ffffff" d="m29.22879,19.65217l-10.45758,0c-0.96733,0 -1.74293,0.78261 -1.74293,1.73913l0,20.86956c0,0.95652 0.7756,1.73913 1.74293,1.73913l10.45758,0c0.96733,0 1.74293,-0.78261 1.74293,-1.73913l0,-20.86956c0,-0.95652 -0.7756,-1.73913 -1.74293,-1.73913zm-5.22879,10.43478c-1.92594,0 -3.48586,-1.55652 -3.48586,-3.47826s1.55992,-3.47826 3.48586,-3.47826s3.48586,1.55652 3.48586,3.47826s-1.55992,3.47826 -3.48586,3.47826zm-8.62751,-15.56522l2.46625,2.46087c1.57735,-1.57391 3.75602,-2.54783 6.16126,-2.54783s4.58391,0.97391 6.16126,2.54783l2.46625,-2.46087c-2.20481,-2.2 -5.25494,-3.56522 -8.62751,-3.56522s-6.4227,1.36522 -8.62751,3.56522zm8.62751,-10.52174c-5.28979,0 -10.08285,2.13913 -13.56,5.6l2.46625,2.46087c2.84098,-2.83478 6.76257,-4.58261 11.09375,-4.58261s8.25278,1.74783 11.09375,4.58261l2.46625,-2.46087c-3.47715,-3.46087 -8.27021,-5.6 -13.56,-5.6z"/>
 </g>
</svg>