<svg width="48.00000000000001" height="48.00000000000001" xmlns="http://www.w3.org/2000/svg">

 <metadata>Google Inc.</metadata>
 <g>
  <title>Layer 1</title>
  <path id="svg_1" fill="none" d="m0,0l48,0l0,48l-48,0l0,-48z"/>
  <path stroke="null" id="svg_2" d="m30,19.02828l-12,0c-1.11,0 -2,0.9 -2,2l0,24c0,1.1 0.89,2 2,2l12,0c1.11,0 2,-0.9 2,-2l0,-24c0,-1.1 -0.89,-2 -2,-2zm-6,12c-2.21,0 -4,-1.79 -4,-4s1.79,-4 4,-4s4,1.79 4,4s-1.79,4 -4,4zm-9.9,-17.9l2.83,2.83c1.81,-1.81 4.31,-2.93 7.07,-2.93s5.26,1.12 7.07,2.93l2.83,-2.83c-2.53,-2.53 -6.03,-4.1 -9.9,-4.1s-7.37,1.57 -9.9,4.1zm9.9,-12.1c-6.07,0 -11.57,2.46 -15.56,6.44l2.83,2.83c3.26,-3.26 7.76,-5.27 12.73,-5.27s9.47,2.01 12.73,5.27l2.83,-2.83c-3.99,-3.98 -9.49,-6.44 -15.56,-6.44z"/>
 </g>
</svg>