<?xml version="1.0"?>
<svg xmlns="http://www.w3.org/2000/svg" height="32" viewBox="0 0 48 48" width="32"><path d="M0 0h64v64h-64z" fill="red"/><path d="M30 18h-12c-1.11 0-2 .9-2 2v24c0 1.1.89 2 2 2h12c1.11 0 2-.9 2-2v-24c0-1.1-.89-2-2-2zm-6 12c-2.21 0-4-1.79-4-4s1.79-4 4-4 4 1.79 4 4-1.79 4-4 4zm-9.9-17.9l2.83 2.83c1.81-1.81 4.31-2.93 7.07-2.93s5.26 1.12 7.07 2.93l2.83-2.83c-2.53-2.53-6.03-4.1-9.9-4.1s-7.37 1.57-9.9 4.1zm9.9-12.1c-6.07 0-11.57 2.46-15.56 6.44l2.83 2.83c3.26-3.26 7.76-5.27 12.73-5.27s9.47 2.01 12.73 5.27l2.83-2.83c-3.99-3.98-9.49-6.44-15.56-6.44z"/>
	
	
	<metadata>
		<rdf:RDF xmlns:rdf="http://www.w3.org/1999/02/22-rdf-syntax-ns#" xmlns:rdfs="http://www.w3.org/2000/01/rdf-schema#" xmlns:dc="http://purl.org/dc/elements/1.1/">
			<rdf:Description about="https://iconscout.com/legal#licenses" dc:title="Remote, Network, Signal, Range, Setting" dc:description="Remote, Network, Signal, Range, Setting" dc:publisher="Iconscout" dc:date="2016-12-14" dc:format="image/svg+xml" dc:language="en">
				<dc:creator>
					<rdf:Bag>
						<rdf:li>Google Inc.</rdf:li>
					</rdf:Bag>
				</dc:creator>
			</rdf:Description>
		</rdf:RDF>
    </metadata></svg>
